<svg id="Warstwa_1" data-name="Warstwa 1" xmlns="http://www.w3.org/2000/svg" viewBox="0 0 1280.4 195.06">
    <defs>
        <style>
            .cls-1{fill:#24d520;}.cls-2{fill:#161616;}
        </style>
    </defs>
    <path class="cls-1" d="M120.41,1.2h-59A16.86,16.86,0,0,0,44.6,18.05v76.8H41.13A41.19,41.19,0,0,0,0,136a16.87,16.87,0,0,0,16.85,16.85H44.6v25.38a16.86,16.86,0,0,0,16.84,16.85H90.18A16.87,16.87,0,0,0,107,178.21V152.83h13.38a75.82,75.82,0,0,0,0-151.63Zm-58,176V152.83H89.19v24.39Zm58-42.23H17.86a23.33,23.33,0,0,1,23.27-22.3h77.05a33.45,33.45,0,0,0,0-66.89h-29V94.85H62.43V19h58a58,58,0,0,1,0,116ZM107,94.85V63.64h11.15a15.61,15.61,0,0,1,.79,31.21c-.26,0-.53,0-.79,0Z"/>
</svg>