<svg id="Warstwa_1" data-name="Warstwa 1" xmlns="http://www.w3.org/2000/svg" viewBox="0 0 1280.4 195.06"><defs><style>.cls-1{fill:#24d520;}.cls-2{fill:#161616;}</style></defs><path class="cls-1" d="M120.41,1.2h-59A16.86,16.86,0,0,0,44.6,18.05v76.8H41.13A41.19,41.19,0,0,0,0,136a16.87,16.87,0,0,0,16.85,16.85H44.6v25.38a16.86,16.86,0,0,0,16.84,16.85H90.18A16.87,16.87,0,0,0,107,178.21V152.83h13.38a75.82,75.82,0,0,0,0-151.63Zm-58,176V152.83H89.19v24.39Zm58-42.23H17.86a23.33,23.33,0,0,1,23.27-22.3h77.05a33.45,33.45,0,0,0,0-66.89h-29V94.85H62.43V19h58a58,58,0,0,1,0,116ZM107,94.85V63.64h11.15a15.61,15.61,0,0,1,.79,31.21c-.26,0-.53,0-.79,0Z"/><path class="cls-2" d="M331.46,66.84a35,35,0,0,0-12.74-14.39,33.13,33.13,0,0,0-17.94-5,30.26,30.26,0,0,0-14.84,3.44,27.27,27.27,0,0,0-10,9.08V48.23H251.38v119H276V117.68a27.54,27.54,0,0,0,10.08,9,31.28,31.28,0,0,0,14.73,3.43A33.27,33.27,0,0,0,318.75,125a35,35,0,0,0,12.71-14.66,48.17,48.17,0,0,0,4.65-21.71A48.62,48.62,0,0,0,331.46,66.84ZM306,103.17a17.27,17.27,0,0,1-24.4.71l-.6-.6c-3.43-3.54-5.09-8.42-5.09-14.51s1.66-11,5.09-14.51a16.77,16.77,0,0,1,12.52-5.42A16.49,16.49,0,0,1,306,74.15c3.44,3.55,5.1,8.31,5.1,14.51S309.42,99.63,306,103.17Z"/><path class="cls-2" d="M411.86,48.23V60A25.86,25.86,0,0,0,402,50.9a30.79,30.79,0,0,0-15-3.44,33.7,33.7,0,0,0-17.94,5,36,36,0,0,0-12.73,14.39,48.69,48.69,0,0,0-4.66,21.82,48.11,48.11,0,0,0,4.71,21.69A35.8,35.8,0,0,0,369.11,125a33.45,33.45,0,0,0,17.83,5.09,32.27,32.27,0,0,0,15-3.43,27.27,27.27,0,0,0,10-9.08v11.3h24.59V48.23Zm-5.09,55.05a16.63,16.63,0,0,1-12.52,5.32,16.24,16.24,0,0,1-12.4-5.43c-3.43-3.54-5.1-8.42-5.1-14.51s1.67-11,5.1-14.51a16.55,16.55,0,0,1,12.4-5.31,16.77,16.77,0,0,1,12.52,5.42c3.43,3.55,5.09,8.31,5.09,14.51S410.2,99.74,406.77,103.28Z"/><path class="cls-2" d="M517.19,48.23l-19.71,47-17.28-47H452.73l32.12,76.65L467,167.07h26.47L543.88,48.23Z"/><path class="cls-2" d="M686.53,56.77c-5.87-6-13.84-9.09-23.81-9.09A31,31,0,0,0,647,51.89a33.5,33.5,0,0,0-11.41,10.86,26.63,26.63,0,0,0-11.07-11.08,32.69,32.69,0,0,0-16.17-4,30.89,30.89,0,0,0-13.73,3,26.84,26.84,0,0,0-9.75,8V48.23h-24.6v80.64h24.59V85.36c0-5.21,1.33-9.19,4.1-12.07s6.53-4.21,11.29-4.21,8.53,1.44,11.3,4.21,4.1,6.86,4.1,12.07v43.53h24.47V85.36c0-5.21,1.33-9.19,4.1-12.07s6.54-4.21,11.3-4.21,8.53,1.44,11.3,4.21,4.09,6.86,4.09,12.07v43.53h24.48V82C695.39,71.27,692.4,62.86,686.53,56.77Z"/><path class="cls-2" d="M887.66,56.88c-5.54-6.1-13.07-9.2-22.49-9.2a33.51,33.51,0,0,0-14.28,3.1,27.14,27.14,0,0,0-10.08,8.42v-11H816.22v80.64h24.59V85.36c0-5.43,1.44-9.64,4.21-12.52A14.61,14.61,0,0,1,856.2,68.3c4.77,0,8.53,1.55,11.3,4.54s4.21,7.09,4.21,12.52v43.53h24.36V82C896.07,71.36,893.31,63,887.66,56.88Z"/><path class="cls-2" d="M956.66,108c-2.66,0-4.55-.55-5.65-1.55a7,7,0,0,1-1.77-5.2V69.06H965.3V48.23H949.24V29.08H924.65V48.23h-9.86V69.06h9.86V101c0,9.85,2.43,17.05,7.42,21.37s12,6.54,20.93,6.54h12.52V108Z"/><path class="cls-2" d="M1062.31,87.44c0-8.08-1.66-15.06-5.09-21.15A35.88,35.88,0,0,0,1043,52.36a46.88,46.88,0,0,0-41.86.11,35.06,35.06,0,0,0-14.29,14.39c-3.39,6.3-5.05,13.5-5.05,21.91s1.66,15.62,5.09,21.82a35.41,35.41,0,0,0,14.4,14.4,42.61,42.61,0,0,0,21,5.09,41.77,41.77,0,0,0,17.72-3.65,36.48,36.48,0,0,0,13.18-9.86,30.6,30.6,0,0,0,3.44-5L1036,103.18c-2.43,5.21-8.41,6.84-14.61,6.84a14.58,14.58,0,0,1-10.42-4c-2.88-2.55-4.42-6.42-4.87-11.41h55.71A53.75,53.75,0,0,0,1062.31,87.44ZM1006.38,81a16.51,16.51,0,0,1,5.21-10.3A16,16,0,0,1,1022,67.18a15.81,15.81,0,0,1,10.85,3.76A12.64,12.64,0,0,1,1037.17,81Z"/><path class="cls-2" d="M795.39,87.44c0-8.08-1.66-15.06-5.09-21.15a35.82,35.82,0,0,0-14.18-14,46.88,46.88,0,0,0-41.86.11A35.11,35.11,0,0,0,720,66.84c-3.43,6.32-5.09,13.51-5.09,21.93s1.63,15.59,5.09,21.82A35.29,35.29,0,0,0,734.4,125a42.61,42.61,0,0,0,21,5.09,41.77,41.77,0,0,0,17.72-3.65,36.48,36.48,0,0,0,13.18-9.86,30.6,30.6,0,0,0,3.44-5l-20.61-8.39c-2.43,5.21-8.41,6.84-14.61,6.84a14.58,14.58,0,0,1-10.42-4c-2.88-2.55-4.43-6.42-4.87-11.41H795A53.67,53.67,0,0,0,795.39,87.44ZM739.46,81a16.51,16.51,0,0,1,5.21-10.3,16,16,0,0,1,10.41-3.54,15.81,15.81,0,0,1,10.85,3.76A12.64,12.64,0,0,1,770.25,81Z"/><path class="cls-2" d="M1118.13,51a32.11,32.11,0,0,0-10.74,10.41V48H1082.8v80.89h24.59V91c0-6.64,1.55-11.3,4.54-14s7.75-3.88,13.85-3.88h6.75V47.07A28,28,0,0,0,1118.13,51Z"/><rect class="cls-2" x="1151.84" y="48.23" width="24.61" height="80.67"/><path class="cls-2" d="M1274.85,67a37.64,37.64,0,0,0-14.95-14.5,47.83,47.83,0,0,0-42.53,0A37.24,37.24,0,0,0,1202.3,67a43.67,43.67,0,0,0-5.42,21.82c0,8.31,1.77,15.62,5.42,21.82a35.72,35.72,0,0,0,14.85,14.4,43,43,0,0,0,21.15,5.09,44.22,44.22,0,0,0,21.38-5.09,38,38,0,0,0,15.17-14.4,42.84,42.84,0,0,0,5.54-21.82A42.64,42.64,0,0,0,1274.85,67Zm-24.48,36.66a16,16,0,0,1-12.07,5.1,15.34,15.34,0,0,1-11.74-5.1c-3.1-3.54-4.65-8.41-4.65-14.84s1.55-11.52,4.76-15a16.1,16.1,0,0,1,12-5.09,15.7,15.7,0,0,1,11.85,5.2c3.21,3.44,4.88,8.42,4.88,14.84S1253.69,100.07,1250.37,103.61Z"/></svg>